Patient4_TMGait_0pt5_02_left_06_GRF.mot
version=1
nRows=52
nColumns=19
inDegrees=no
endheader
time	F1x	F1y	F1z	M1x	M1y	M1z	F2x	F2y	F2z	M2x	M2y	M2z	EC1x	EC1y	EC1z	EC2x	EC2y	EC2z
7.09	4.7378	2.1338	-2.0967	1.3327	0.5104	3.145	-45.7638	799.7328	-48.8105	311.4697	53.5812	662.0415	-0.0592	0.0182	-0.0073	-0.0462	0.0165	0.9585
7.1035	3.2629	1.7916	-1.4242	0.77741	0.34195	2.444	-42.7742	787.6723	-49.1925	307.2212	53.6985	649.2925	-0.0592	0.0182	-0.0073	-0.0462	0.0165	0.9585
7.117	2.0189	1.4935	-0.84162	0.30445	0.19701	1.8485	-39.3987	773.721	-48.9897	302.1958	52.9595	634.4275	-0.0592	0.0182	-0.0073	-0.0462	0.0165	0.9585
7.1305	1.074	1.2739	-0.39362	-0.063724	0.085261	1.3987	-35.767	758.9836	-48.1937	296.8041	51.3611	618.3958	-0.0592	0.0182	-0.0073	-0.0462	0.0165	0.9585
7.144	0.41939	1.1385	-0.068855	-0.32788	-0.0094095	1.1015	-31.9673	744.7864	-46.9096	291.5742	49.0422	602.292	-0.0592	0.0182	-0.0073	-0.0462	0.0165	0.9585
7.1575	0.0035726	1.0706	0.14281	-0.50075	-0.085329	0.93242	-28.0282	732.4964	-45.2914	287.0625	46.1887	587.2165	-0.0592	0.0182	-0.0073	-0.0462	0.0165	0.9585
7.171	-0.23506	1.044	0.27723	-0.59819	-0.15699	0.84916	-23.9078	723.297	-43.5035	283.7574	42.977	574.0887	-0.0592	0.0182	-0.0073	-0.0462	0.0165	0.9585
7.1845	-0.3574	1.0312	0.35463	-0.63791	-0.22341	0.80601	-19.5383	718.0136	-41.7075	282.0018	39.5607	563.5384	-0.0592	0.0182	-0.0073	-0.0462	0.0165	0.9585
7.198	-0.42018	0.9943	0.40175	-0.63005	-0.2963	0.75815	-14.8514	717.009	-40.0612	281.9498	36.0775	555.8447	-0.0592	0.0182	-0.0073	-0.0462	0.0165	0.9585
7.2115	-0.46694	0.88652	0.42938	-0.57572	-0.37464	0.66084	-9.8118	720.1907	-38.7101	283.568	32.6529	550.9587	-0.0592	0.0182	-0.0073	-0.0462	0.0165	0.9585
7.225	-0.52284	0.66179	0.45517	-0.46771	-0.46341	0.47506	-4.4543	727.0847	-37.7477	286.6611	29.3838	548.5904	-0.0592	0.0182	-0.0073	-0.0462	0.0165	0.9585
7.2385	-0.5998	0.26766	0.47678	-0.2928	-0.55145	0.15023	1.1125	736.8715	-37.2076	290.8868	26.3405	548.2436	-0.0592	0.0182	-0.0073	-0.0462	0.0165	0.9585
7.252	-0.69591	-0.34362	0.50271	-0.035765	-0.63765	-0.35598	6.6633	748.4107	-37.0761	295.7646	23.5922	549.264	-0.0592	0.0182	-0.0073	-0.0462	0.0165	0.9585
7.2655	-0.78017	-1.2029	0.52849	0.31301	-0.70146	-1.0779	11.8768	760.2629	-37.3213	300.6893	21.2325	550.8413	-0.0592	0.0182	-0.0073	-0.0462	0.0165	0.9585
7.279	-0.7966	-2.3057	0.54985	0.75074	-0.71722	-2.0167	16.3688	770.8175	-37.8896	304.9865	19.3646	552.0812	-0.0592	0.0182	-0.0073	-0.0462	0.0165	0.9585
7.2925	-0.65862	-3.5759	0.53721	1.2477	-0.63009	-3.1156	19.7992	778.4912	-38.7202	307.9982	18.0777	552.0907	-0.0592	0.0182	-0.0073	-0.0462	0.0165	0.9585
7.306	-0.26395	-4.8213	0.4525	1.7318	-0.37089	-4.2115	22.0073	782.0322	-39.7554	309.2105	17.4021	550.1163	-0.0592	0.0182	-0.0073	-0.0462	0.0165	0.9585
7.3195	0.51765	-5.7003	0.23819	2.0709	0.1577	-5.007	23.0707	780.9042	-40.9411	308.4073	17.2791	545.7962	-0.0592	0.0182	-0.0073	-0.0462	0.0165	0.9585
7.333	1.8192	-5.6769	-0.16207	2.0537	1.0526	-5.0339	23.27	775.4333	-42.2413	305.7273	17.5832	539.2532	-0.0592	0.0182	-0.0073	-0.0462	0.0165	0.9585
7.3465	3.747	-3.9763	-0.80699	1.377	2.398	-3.6149	22.9868	766.6704	-43.6547	301.6067	18.1733	531.0342	-0.0592	0.0182	-0.0073	-0.0462	0.0165	0.9585
7.36	6.3346	0.39947	-1.7348	-0.34872	4.2337	0.13412	22.6181	756.0877	-45.2014	296.655	18.914	521.9368	-0.0592	0.0182	-0.0073	-0.0462	0.0165	0.9585
7.3735	9.4632	8.6193	-2.9498	-3.574	6.5154	7.2612	22.5216	745.2088	-46.8794	291.5063	19.6625	512.7808	-0.0592	0.0182	-0.0073	-0.0462	0.0165	0.9585
7.387	12.7773	21.8443	-4.3832	-8.7434	9.0401	18.8292	22.9498	735.2277	-48.6448	286.6653	20.288	504.1937	-0.0592	0.0182	-0.0073	-0.0462	0.0165	0.9585
7.4005	15.5628	40.9328	-5.8586	-16.183	11.3732	35.658	24.0272	726.6976	-50.401	282.3861	20.6739	496.4183	-0.0592	0.0182	-0.0073	-0.0462	0.0165	0.9585
7.414	16.7492	66.1148	-7.141	-25.9722	12.8949	58.0356	25.726	719.4194	-52.0185	278.625	20.737	489.262	-0.0592	0.0182	-0.0073	-0.0462	0.0165	0.9585
7.4275	15.3915	96.8607	-7.919	-37.8884	12.9645	85.5964	27.8862	712.4827	-53.3347	275.058	20.4264	482.1219	-0.0592	0.0182	-0.0073	-0.0462	0.0165	0.9585
7.441	11.5303	132.0816	-7.9091	-51.4794	11.3443	117.4498	30.2709	704.5015	-54.1798	271.1705	19.7298	474.1363	-0.0592	0.0182	-0.0073	-0.0462	0.0165	0.9585
7.4545	6.0177	169.634	-6.7788	-65.874	8.0636	151.6621	32.6152	693.908	-54.3966	266.3725	18.6607	464.3678	-0.0592	0.0182	-0.0073	-0.0462	0.0165	0.9585
7.468	-0.067194	205.5863	-4.2451	-79.5391	3.2887	184.5841	34.6842	679.2109	-53.872	260.0998	17.2589	451.934	-0.0592	0.0182	-0.0073	-0.0462	0.0165	0.9585
7.4815	-5.514	235.5896	-0.66522	-90.8395	-2.1589	212.1526	36.3022	659.3457	-52.5562	251.9493	15.5846	436.2264	-0.0592	0.0182	-0.0073	-0.0462	0.0165	0.9585
7.495	-9.711	257.718	3.2027	-99.0839	-7.3209	232.5479	37.3924	634.0074	-50.5011	241.8018	13.7233	417.1228	-0.0592	0.0182	-0.0073	-0.0462	0.0165	0.9585
7.5085	-12.8034	273.353	6.7516	-104.8426	-11.6934	246.9918	37.9931	603.6597	-47.8361	229.827	11.7564	394.9839	-0.0592	0.0182	-0.0073	-0.0462	0.0165	0.9585
7.522	-15.2828	285.9052	9.6093	-109.4516	-15.1314	258.558	38.2273	569.1913	-44.6898	216.361	9.7272	370.432	-0.0592	0.0182	-0.0073	-0.0462	0.0165	0.9585
7.5355	-17.5813	299.1917	11.6617	-114.3809	-17.7146	270.6408	38.206	531.5546	-41.0996	201.7699	7.6177	344.1233	-0.0592	0.0182	-0.0073	-0.0462	0.0165	0.9585
7.549	-19.9369	316.3778	13.0419	-120.8252	-19.6684	286.0133	37.963	491.5317	-37.0622	186.3557	5.4098	316.6014	-0.0592	0.0182	-0.0073	-0.0462	0.0165	0.9585
7.5625	-22.3808	339.5027	14.1195	-129.5223	-21.3468	306.3892	37.4314	449.6601	-32.6024	170.3198	3.1304	288.2474	-0.0592	0.0182	-0.0073	-0.0462	0.0165	0.9585
7.576	-24.8657	369.3609	15.4023	-140.7137	-23.1863	332.3743	36.4451	406.2665	-27.8395	153.7751	0.89578	259.3034	-0.0592	0.0182	-0.0073	-0.0462	0.0165	0.9585
7.5895	-27.3241	405.5414	17.4283	-154.1797	-25.6354	363.5258	34.7885	361.5933	-22.9685	136.7995	-1.1161	229.9392	-0.0592	0.0182	-0.0073	-0.0462	0.0165	0.9585
7.603	-29.6851	446.807	20.5831	-169.4038	-29.0034	398.6743	32.2745	316.0128	-18.2317	119.5176	-2.7005	200.378	-0.0592	0.0182	-0.0073	-0.0462	0.0165	0.9585
7.6165	-31.8839	491.646	24.9734	-185.7895	-33.3547	436.4304	28.8302	270.1946	-13.8626	102.1675	-3.7021	171.0019	-0.0592	0.0182	-0.0073	-0.0462	0.0165	0.9585
7.63	-33.8318	538.5864	30.4062	-202.7862	-38.4815	475.4408	24.5328	225.164	-10.0525	85.1258	-4.05	142.4015	-0.0592	0.0182	-0.0073	-0.0462	0.0165	0.9585
7.6435	-35.4522	586.2399	36.5364	-219.8925	-44.0479	514.4697	19.6412	182.2037	-6.9131	68.8713	-3.7952	115.3055	-0.0592	0.0182	-0.0073	-0.0462	0.0165	0.9585
7.657	-36.6646	633.1515	42.9451	-236.5917	-49.6578	552.2601	14.5693	142.6316	-4.4798	53.8997	-3.0881	90.4465	-0.0592	0.0182	-0.0073	-0.0462	0.0165	0.9585
7.6705	-37.419	677.6718	49.228	-252.2999	-54.9447	587.4344	9.75	107.5315	-2.7078	40.6205	-2.1326	68.4306	-0.0592	0.0182	-0.0073	-0.0462	0.0165	0.9585
7.684	-37.6896	718.0466	55.0137	-266.3989	-59.58	618.5628	5.5304	77.5644	-1.5036	29.2865	-1.1204	49.6215	-0.0592	0.0182	-0.0073	-0.0462	0.0165	0.9585
7.6975	-37.444	752.6662	60.0692	-278.3236	-63.3624	644.3555	2.1353	52.9582	-0.73569	19.9852	-0.21587	34.1456	-0.0592	0.0182	-0.0073	-0.0462	0.0165	0.9585
7.711	-36.6622	780.3171	64.2403	-287.653	-66.1612	663.8833	-0.32513	33.6012	-0.28786	12.6736	0.48107	21.9419	-0.0592	0.0182	-0.0073	-0.0462	0.0165	0.9585
7.7245	-35.3043	800.2858	67.4528	-294.152	-67.9017	676.6339	-1.8127	19.1323	-0.051355	7.2143	0.90332	12.7824	-0.0592	0.0182	-0.0073	-0.0462	0.0165	0.9585
7.738	-33.3446	812.3688	69.6654	-297.7693	-68.5447	682.531	-2.4148	9.0407	0.047277	3.4119	1.0524	6.3526	-0.0592	0.0182	-0.0073	-0.0462	0.0165	0.9585
7.7515	-30.7808	816.8133	70.9084	-298.6089	-68.1285	681.892	-2.4072	2.6665	0.064913	1.0162	1.0057	2.2405	-0.0592	0.0182	-0.0073	-0.0462	0.0165	0.9585
7.765	-27.6541	814.3177	71.2682	-296.9269	-66.7569	675.4189	-2.0777	-0.81867	0.029582	-0.28542	0.86407	-0.048457	-0.0592	0.0182	-0.0073	-0.0462	0.0165	0.9585
7.7785	-24.0922	806.0616	70.8959	-293.1462	-64.6171	664.1996	-1.6286	-2.2608	-0.031524	-0.81323	0.69451	-1.0166	-0.0592	0.0182	-0.0073	-0.0462	0.0165	0.9585
